<svg width="32" height="31" viewBox="0 0 32 31" fill="none" xmlns="http://www.w3.org/2000/svg">
<rect width="32" height="31" rx="15" fill="#FFE651"/>
<path d="M16.5 10.75C16.5 10.3358 16.1642 10 15.75 10C15.3358 10 15 10.3358 15 10.75V15H10.75C10.3358 15 10 15.3358 10 15.75C10 16.1642 10.3358 16.5 10.75 16.5H15V20.75C15 21.1642 15.3358 21.5 15.75 21.5C16.1642 21.5 16.5 21.1642 16.5 20.75V16.5H20.75C21.1642 16.5 21.5 16.1642 21.5 15.75C21.5 15.3358 21.1642 15 20.75 15H16.5V10.75Z" fill="black" stroke="black" stroke-width="2" stroke-linecap="round"/>
</svg>
