<svg width="56" height="32" viewBox="0 0 56 32" fill="none" xmlns="http://www.w3.org/2000/svg">
<g clip-path="url(#clip0_3_1424)">
<path fill-rule="evenodd" clip-rule="evenodd" d="M23 7.25C23.4142 7.25 23.75 7.58579 23.75 8V9.66763C26.5777 9.4158 29.4223 9.4158 32.25 9.66763V8C32.25 7.58579 32.5858 7.25 33 7.25C33.4142 7.25 33.75 7.58579 33.75 8V9.81644C35.243 10.0275 36.4226 11.2085 36.6222 12.7148L36.7088 13.3678C37.0728 16.1141 37.0414 18.8984 36.6154 21.6359C36.4044 22.9919 35.3028 24.0335 33.937 24.1681L32.744 24.2858C29.589 24.5969 26.411 24.5969 23.2559 24.2858L22.0629 24.1681C20.6972 24.0335 19.5955 22.9919 19.3845 21.6359C18.9586 18.8984 18.9271 16.1141 19.2911 13.3678L19.3777 12.7148C19.5774 11.2085 20.7569 10.0275 22.25 9.81643V8C22.25 7.58579 22.5858 7.25 23 7.25ZM23.4452 11.2028C26.4744 10.9041 29.5256 10.9041 32.5548 11.2028L33.4602 11.2921C34.327 11.3776 35.0208 12.0485 35.1352 12.9119L35.2218 13.5649C35.252 13.793 35.2794 14.0214 35.3039 14.25H20.6961C20.7205 14.0214 20.7479 13.793 20.7781 13.5649L20.8647 12.9119C20.9791 12.0485 21.673 11.3776 22.5397 11.2921L23.4452 11.2028ZM20.5768 15.75C20.4787 17.6381 20.5754 19.5332 20.8667 21.4052C20.9725 22.0854 21.5251 22.6078 22.2101 22.6754L23.4031 22.793C26.4603 23.0945 29.5397 23.0945 32.5968 22.793L33.7898 22.6754C34.4748 22.6078 35.0274 22.0854 35.1333 21.4052C35.4246 19.5332 35.5213 17.6381 35.4231 15.75H20.5768Z" fill="#9DB2CE"/>
</g>
<defs>
<clipPath id="clip0_3_1424">
<rect width="56" height="32" rx="16" fill="white"/>
</clipPath>
</defs>
</svg>
