<svg width="56" height="32" viewBox="0 0 56 32" fill="none" xmlns="http://www.w3.org/2000/svg">
<g clip-path="url(#clip0_3_1411)">
<path fill-rule="evenodd" clip-rule="evenodd" d="M29.5578 9.53423C28.6873 8.69887 27.3127 8.69887 26.4422 9.53423L21.8157 13.9736C21.7024 14.0823 21.6261 14.224 21.5978 14.3785C21.0437 17.4004 21.0028 20.494 21.4768 23.5295L21.5893 24.25H24.5658V18.0387C24.5658 17.6244 24.9016 17.2887 25.3158 17.2887H30.6842C31.0984 17.2887 31.4342 17.6244 31.4342 18.0387V24.25H34.4107L34.5232 23.5295C34.9972 20.494 34.9563 17.4004 34.4022 14.3785C34.3739 14.224 34.2976 14.0823 34.1843 13.9736L29.5578 9.53423ZM25.4036 8.45191C26.8546 7.05965 29.1454 7.05965 30.5964 8.45191L35.2228 12.8912C35.5634 13.218 35.7925 13.6437 35.8776 14.108C36.4621 17.2956 36.5053 20.559 36.0052 23.7609L35.8245 24.9184C35.7497 25.3971 35.3374 25.75 34.8529 25.75H30.6842C30.27 25.75 29.9342 25.4142 29.9342 25V18.7887H26.0658V25C26.0658 25.4142 25.73 25.75 25.3158 25.75H21.1471C20.6626 25.75 20.2503 25.3971 20.1755 24.9184L19.9948 23.7609C19.4947 20.559 19.5379 17.2956 20.1224 14.108C20.2075 13.6437 20.4366 13.218 20.7772 12.8912L25.4036 8.45191Z" fill="#9DB2CE"/>
</g>
<defs>
<clipPath id="clip0_3_1411">
<rect width="56" height="32" rx="16" fill="white"/>
</clipPath>
</defs>
</svg>
