<svg width="56" height="32" viewBox="0 0 56 32" fill="none" xmlns="http://www.w3.org/2000/svg">
<path d="M23.5996 13.5C22.9093 13.5 22.3496 14.0596 22.3496 14.75C22.3496 15.4403 22.9093 16 23.5996 16C24.29 16 24.8496 15.4403 24.8496 14.75C24.8496 14.0596 24.29 13.5 23.5996 13.5Z" fill="#9DB2CE"/>
<path d="M27.5996 13.5C26.9093 13.5 26.3496 14.0596 26.3496 14.75C26.3496 15.4403 26.9093 16 27.5996 16C28.29 16 28.8496 15.4403 28.8496 14.75C28.8496 14.0596 28.29 13.5 27.5996 13.5Z" fill="#9DB2CE"/>
<path d="M30.3496 14.75C30.3496 14.0596 30.9093 13.5 31.5996 13.5C32.29 13.5 32.8496 14.0596 32.8496 14.75C32.8496 15.4403 32.29 16 31.5996 16C30.9093 16 30.3496 15.4403 30.3496 14.75Z" fill="#9DB2CE"/>
<path fill-rule="evenodd" clip-rule="evenodd" d="M31.7003 8.59277C29.0061 8.36301 26.2979 8.34967 23.6016 8.5529L23.4083 8.56746C20.837 8.76126 18.8496 10.9041 18.8496 13.4827V22C18.8496 22.2639 18.9883 22.5083 19.2148 22.6437C19.4412 22.7791 19.7222 22.7855 19.9546 22.6606L23.8654 20.5589C24.0474 20.4611 24.2507 20.41 24.4572 20.41H33.4336C34.5657 20.41 35.5359 19.6006 35.7388 18.4868C36.1501 16.2296 36.1826 13.9196 35.8349 11.6517L35.7325 10.9834C35.546 9.76665 34.5506 8.83584 33.3241 8.73124L31.7003 8.59277ZM23.7143 10.0487C26.3306 9.85146 28.9586 9.8644 31.5729 10.0873L33.1966 10.2258C33.733 10.2716 34.1682 10.6786 34.2498 11.2107L34.3522 11.879C34.6746 13.9823 34.6445 16.1246 34.2631 18.218C34.1901 18.6187 33.8409 18.91 33.4336 18.91H24.4572C24.0028 18.91 23.5556 19.0225 23.1554 19.2376L20.3496 20.7455V13.4827C20.3496 11.6888 21.7322 10.198 23.5211 10.0632L23.7143 10.0487Z" fill="#9DB2CE"/>
</svg>
