<svg width="56" height="32" viewBox="0 0 56 32" fill="none" xmlns="http://www.w3.org/2000/svg">
<path fill-rule="evenodd" clip-rule="evenodd" d="M35.0822 8.91231L27.8984 8.74982L20.7147 8.91231C19.3835 8.94242 18.2564 9.90304 18.0158 11.2126C17.434 14.3777 17.434 17.6223 18.0158 20.7874C18.2564 22.097 19.3835 23.0576 20.7147 23.0877L27.8984 23.2502L35.0822 23.0877C36.4133 23.0576 37.5404 22.097 37.7811 20.7874C38.3628 17.6223 38.3628 14.3777 37.7811 11.2126C37.5404 9.90303 36.4133 8.94242 35.0822 8.91231ZM20.7486 10.4119L27.8984 10.2502L35.0482 10.4119C35.6685 10.426 36.1937 10.8736 36.3058 11.4837C36.4591 12.3177 36.5696 13.1576 36.6372 14H19.1596C19.2273 13.1576 19.3378 12.3177 19.491 11.4837C19.6032 10.8736 20.1284 10.426 20.7486 10.4119ZM19.0795 16C19.0795 17.5117 19.2167 19.0233 19.491 20.5163C19.6032 21.1265 20.1284 21.5741 20.7486 21.5881L27.8984 21.7498L35.0482 21.5881C35.6685 21.5741 36.1937 21.1265 36.3058 20.5163C36.5802 19.0233 36.7174 17.5117 36.7174 16H19.0795Z" fill="#9DB2CE"/>
</svg>
