<svg width="107" height="14" viewBox="0 0 107 14" fill="none" xmlns="http://www.w3.org/2000/svg">
<g clip-path="url(#clip0_3_1355)">
<rect width="106.152" height="13.884" fill="#F9F9F9"/>
<rect width="106.453" height="14" fill="black" fill-opacity="0.01"/>
<g clip-path="url(#clip1_3_1355)">
<rect width="15.75" height="14" fill="#F9F9F9"/>
<rect width="15.75" height="14" fill="black" fill-opacity="0.01"/>
<g clip-path="url(#clip2_3_1355)">
<rect width="14.6562" height="14" fill="#F9F9F9"/>
<mask id="mask0_3_1355" style="mask-type:luminance" maskUnits="userSpaceOnUse" x="0" y="0" width="15" height="14">
<rect width="14.6562" height="14" fill="white"/>
</mask>
<g mask="url(#mask0_3_1355)">
<path d="M8.12148 0.792579C7.87539 0.327735 7.32852 0.300391 7.32852 0.300391C6.80898 0.327735 6.53555 0.792579 6.53555 0.792579L4.78555 4.40195L0.848047 5.00352C0.328516 5.08555 0.164453 5.57773 0.164453 5.57773C0.000390604 6.09727 0.383203 6.48008 0.383203 6.48008L3.22695 9.29648L2.54336 13.2887C2.48867 13.8082 2.89883 14.1363 2.89883 14.1363C3.33633 14.4371 3.82852 14.191 3.82852 14.191L7.32852 12.3316L10.8559 14.191C11.3207 14.4371 11.7582 14.1363 11.7582 14.1363C12.1957 13.8082 12.1137 13.2887 12.1137 13.2887L11.4574 9.29648L14.3012 6.48008C14.6566 6.09727 14.5199 5.57773 14.5199 5.57773C14.3285 5.08555 13.809 5.00352 13.809 5.00352L9.87148 4.40195L8.12148 0.792579Z" fill="#F5BB1B"/>
</g>
</g>
</g>
<g clip-path="url(#clip3_3_1355)">
<rect width="15.75" height="14" transform="translate(15.75)" fill="#F9F9F9"/>
<rect x="15.75" width="15.75" height="14" fill="black" fill-opacity="0.01"/>
<g clip-path="url(#clip4_3_1355)">
<rect width="14.6562" height="14" transform="translate(15.75)" fill="#F9F9F9"/>
<mask id="mask1_3_1355" style="mask-type:luminance" maskUnits="userSpaceOnUse" x="15" y="0" width="16" height="14">
<rect x="15.75" width="14.6562" height="14" fill="white"/>
</mask>
<g mask="url(#mask1_3_1355)">
<path d="M23.8715 0.792579C23.6254 0.327735 23.0785 0.300391 23.0785 0.300391C22.559 0.327735 22.2855 0.792579 22.2855 0.792579L20.5355 4.40195L16.598 5.00352C16.0785 5.08555 15.9145 5.57773 15.9145 5.57773C15.7504 6.09727 16.1332 6.48008 16.1332 6.48008L18.977 9.29648L18.2934 13.2887C18.2387 13.8082 18.6488 14.1363 18.6488 14.1363C19.0863 14.4371 19.5785 14.191 19.5785 14.191L23.0785 12.3316L26.6059 14.191C27.0707 14.4371 27.5082 14.1363 27.5082 14.1363C27.9457 13.8082 27.8637 13.2887 27.8637 13.2887L27.2074 9.29648L30.0512 6.48008C30.4066 6.09727 30.2699 5.57773 30.2699 5.57773C30.0785 5.08555 29.559 5.00352 29.559 5.00352L25.6215 4.40195L23.8715 0.792579Z" fill="#F5BB1B"/>
</g>
</g>
</g>
<g clip-path="url(#clip5_3_1355)">
<rect width="15.75" height="14" transform="translate(31.5)" fill="#F9F9F9"/>
<rect x="31.5" width="15.75" height="14" fill="black" fill-opacity="0.01"/>
<g clip-path="url(#clip6_3_1355)">
<rect width="14.6562" height="14" transform="translate(31.5)" fill="#F9F9F9"/>
<mask id="mask2_3_1355" style="mask-type:luminance" maskUnits="userSpaceOnUse" x="31" y="0" width="16" height="14">
<rect x="31.5" width="14.6562" height="14" fill="white"/>
</mask>
<g mask="url(#mask2_3_1355)">
<path d="M39.6215 0.792579C39.3754 0.327735 38.8285 0.300391 38.8285 0.300391C38.309 0.327735 38.0355 0.792579 38.0355 0.792579L36.2855 4.40195L32.348 5.00352C31.8285 5.08555 31.6645 5.57773 31.6645 5.57773C31.5004 6.09727 31.8832 6.48008 31.8832 6.48008L34.727 9.29648L34.0434 13.2887C33.9887 13.8082 34.3988 14.1363 34.3988 14.1363C34.8363 14.4371 35.3285 14.191 35.3285 14.191L38.8285 12.3316L42.3559 14.191C42.8207 14.4371 43.2582 14.1363 43.2582 14.1363C43.6957 13.8082 43.6137 13.2887 43.6137 13.2887L42.9574 9.29648L45.8012 6.48008C46.1566 6.09727 46.0199 5.57773 46.0199 5.57773C45.8285 5.08555 45.309 5.00352 45.309 5.00352L41.3715 4.40195L39.6215 0.792579Z" fill="#F5BB1B"/>
</g>
</g>
</g>
<g clip-path="url(#clip7_3_1355)">
<rect width="15.75" height="14" transform="translate(47.25)" fill="#F9F9F9"/>
<rect x="47.25" width="15.75" height="14" fill="black" fill-opacity="0.01"/>
<g clip-path="url(#clip8_3_1355)">
<rect width="14.6562" height="14" transform="translate(47.25)" fill="#F9F9F9"/>
<mask id="mask3_3_1355" style="mask-type:luminance" maskUnits="userSpaceOnUse" x="47" y="0" width="15" height="14">
<rect x="47.25" width="14.6562" height="14" fill="white"/>
</mask>
<g mask="url(#mask3_3_1355)">
<path d="M55.3715 0.792579C55.1254 0.327735 54.5785 0.300391 54.5785 0.300391C54.059 0.327735 53.7855 0.792579 53.7855 0.792579L52.0355 4.40195L48.098 5.00352C47.5785 5.08555 47.4145 5.57773 47.4145 5.57773C47.2504 6.09727 47.6332 6.48008 47.6332 6.48008L50.477 9.29648L49.7934 13.2887C49.7387 13.8082 50.1488 14.1363 50.1488 14.1363C50.5863 14.4371 51.0785 14.191 51.0785 14.191L54.5785 12.3316L58.1059 14.191C58.5707 14.4371 59.0082 14.1363 59.0082 14.1363C59.4457 13.8082 59.3637 13.2887 59.3637 13.2887L58.7074 9.29648L61.5512 6.48008C61.9066 6.09727 61.7699 5.57773 61.7699 5.57773C61.5785 5.08555 61.059 5.00352 61.059 5.00352L57.1215 4.40195L55.3715 0.792579Z" fill="#F5BB1B"/>
</g>
</g>
</g>
<g clip-path="url(#clip9_3_1355)">
<rect width="15.75" height="14" transform="translate(63)" fill="#F9F9F9"/>
<rect x="63" width="15.75" height="14" fill="black" fill-opacity="0.01"/>
<g clip-path="url(#clip10_3_1355)">
<rect width="14.6562" height="14" transform="translate(63)" fill="#F9F9F9"/>
<mask id="mask4_3_1355" style="mask-type:luminance" maskUnits="userSpaceOnUse" x="63" y="0" width="15" height="14">
<rect x="63" width="14.6562" height="14" fill="white"/>
</mask>
<g mask="url(#mask4_3_1355)">
<path d="M71.1215 0.792579C70.8754 0.327735 70.3285 0.300391 70.3285 0.300391C69.809 0.327735 69.5355 0.792579 69.5355 0.792579L67.7855 4.40195L63.848 5.00352C63.3285 5.08555 63.1645 5.57773 63.1645 5.57773C63.0004 6.09727 63.3832 6.48008 63.3832 6.48008L66.227 9.29648L65.5434 13.2887C65.4887 13.8082 65.8988 14.1363 65.8988 14.1363C66.3363 14.4371 66.8285 14.191 66.8285 14.191L70.3285 12.3316L73.8559 14.191C74.3207 14.4371 74.7582 14.1363 74.7582 14.1363C75.1957 13.8082 75.1137 13.2887 75.1137 13.2887L74.4574 9.29648L77.3012 6.48008C77.6566 6.09727 77.5199 5.57773 77.5199 5.57773C77.3285 5.08555 76.809 5.00352 76.809 5.00352L72.8715 4.40195L71.1215 0.792579Z" fill="#F5BB1B"/>
</g>
</g>
</g>
</g>
<defs>
<clipPath id="clip0_3_1355">
<rect width="106.152" height="13.884" fill="white"/>
</clipPath>
<clipPath id="clip1_3_1355">
<rect width="15.75" height="14" fill="white"/>
</clipPath>
<clipPath id="clip2_3_1355">
<rect width="14.6562" height="14" fill="white"/>
</clipPath>
<clipPath id="clip3_3_1355">
<rect width="15.75" height="14" fill="white" transform="translate(15.75)"/>
</clipPath>
<clipPath id="clip4_3_1355">
<rect width="14.6562" height="14" fill="white" transform="translate(15.75)"/>
</clipPath>
<clipPath id="clip5_3_1355">
<rect width="15.75" height="14" fill="white" transform="translate(31.5)"/>
</clipPath>
<clipPath id="clip6_3_1355">
<rect width="14.6562" height="14" fill="white" transform="translate(31.5)"/>
</clipPath>
<clipPath id="clip7_3_1355">
<rect width="15.75" height="14" fill="white" transform="translate(47.25)"/>
</clipPath>
<clipPath id="clip8_3_1355">
<rect width="14.6562" height="14" fill="white" transform="translate(47.25)"/>
</clipPath>
<clipPath id="clip9_3_1355">
<rect width="15.75" height="14" fill="white" transform="translate(63)"/>
</clipPath>
<clipPath id="clip10_3_1355">
<rect width="14.6562" height="14" fill="white" transform="translate(63)"/>
</clipPath>
</defs>
</svg>
